# xmcd
#
# Track frame offsets: 
#        150
#        26210
#        45661
#        69606
#        89561
#        107969
#        126384
#        142075
#        159800
#        181952
#        196317
#        209589
#        233318
#
# Disc length: 3372 seconds
#
# Revision: 0
# Processed by: cddbd v1.5.2PL0 Copyright (c) Steve Scherf et al.
# Submitted via: ExactAudioCopy v0.99pb3
#
DISCID=bc0d2a0d
DTITLE=Severed Heads - Gigaplus: Demos And Curios
DYEAR=2009
DGENRE=Sevcom
TTITLE0=We Have Come To Remix The House (Boxcar remix)
TTITLE1=Snow (remix)
TTITLE2=Heart Of The Party (sketch)
TTITLE3=Dollarex (from original video 1993)
TTITLE4=First Resonant Bank (demo)
TTITLE5=Calling All Goth Girls (demo)
TTITLE6=Tenderizer (sketch)
TTITLE7=The Importance Of Hair (Analogue version)
TTITLE8=ANIMal (Digital version)
TTITLE9=Life's Oven (sketch)
TTITLE10=Cabbala Baby (sketch)
TTITLE11=Twelve Inches Of Snow (demo)
TTITLE12=40box (sketch)
EXTD=
EXTT0=
EXTT1=
EXTT2=
EXTT3=
EXTT4=
EXTT5=
EXTT6=
EXTT7=
EXTT8=
EXTT9=
EXTT10=
EXTT11=
EXTT12=
PLAYORDER=
